<?xml version="1.0" standalone="no"?>
<!DOCTYPE svg PUBLIC "-//W3C//DTD SVG 20010904//EN"
 "http://www.w3.org/TR/2001/REC-SVG-20010904/DTD/svg10.dtd">
<svg version="1.0" xmlns="http://www.w3.org/2000/svg"
 width="896.000000pt" height="462.000000pt" viewBox="0 0 896.000000 462.000000"
 preserveAspectRatio="xMidYMid meet">

<g transform="translate(0.000000,462.000000) scale(0.100000,-0.100000)"
fill="#000000" stroke="none">
<path d="M2045 3563 c-322 -28 -573 -122 -792 -298 -245 -196 -365 -474 -350
-809 7 -149 33 -260 91 -381 157 -329 484 -558 916 -641 70 -14 179 -17 635
-20 l550 -4 278 361 c263 343 277 363 277 403 0 41 -2 44 -42 62 -82 36 -217
134 -282 206 -46 49 -81 100 -113 165 l-46 93 -659 0 c-634 0 -659 -1 -646
-18 7 -10 105 -129 217 -265 l204 -247 349 0 348 0 0 -100 0 -100 -439 0
c-474 0 -529 5 -650 54 -78 32 -179 103 -225 159 -148 180 -135 464 28 631 96
99 223 162 373 185 46 7 254 11 573 11 392 0 501 3 504 13 2 6 10 44 20 82 20
88 72 193 131 267 39 50 149 146 211 185 15 9 -140 12 -701 11 -396 -1 -738
-3 -760 -5z"/>
<path d="M4013 3559 c-281 -33 -531 -170 -636 -350 -68 -116 -94 -282 -63
-412 63 -266 325 -460 686 -507 41 -5 357 -10 701 -10 408 0 646 -4 684 -11
105 -19 171 -67 181 -130 8 -54 -24 -94 -104 -132 l-67 -32 -835 -5 -835 -5
-182 -235 c-100 -129 -196 -254 -214 -278 l-31 -43 1079 4 c1048 3 1081 4
1168 24 321 74 552 257 628 498 28 92 30 270 3 360 -81 268 -322 455 -672 521
-76 15 -186 18 -752 23 l-664 6 -19 24 c-26 32 -24 74 5 108 l24 28 699 3 700
2 211 275 c117 151 212 277 212 280 0 9 -1830 3 -1907 -6z"/>
<path d="M5917 3293 l-214 -278 496 -5 496 -5 3 -797 2 -798 330 0 330 0 1
768 c1 422 2 781 3 797 l1 30 285 3 285 3 180 235 c99 129 195 255 213 279
l34 45 -1116 0 -1115 0 -214 -277z"/>
</g>
</svg>
