<?xml version="1.0" standalone="no"?>
<!DOCTYPE svg PUBLIC "-//W3C//DTD SVG 20010904//EN"
 "http://www.w3.org/TR/2001/REC-SVG-20010904/DTD/svg10.dtd">
<svg version="1.0" xmlns="http://www.w3.org/2000/svg"
 width="1000.000000pt" height="780.000000pt" viewBox="0 0 1000.000000 780.000000"
 preserveAspectRatio="xMidYMid meet">

<g transform="translate(0.000000,780.000000) scale(0.100000,-0.100000)"
fill="#000000" stroke="none">
<path d="M2420 5373 c-93 -7 -257 -36 -339 -59 -374 -109 -662 -364 -765 -677
-52 -156 -59 -406 -16 -577 101 -410 483 -726 985 -817 74 -14 185 -17 635
-20 l545 -3 155 202 c85 111 210 273 278 361 112 146 122 162 122 201 0 41 -2
44 -42 62 -82 36 -217 134 -282 206 -46 49 -81 100 -113 165 l-46 93 -659 0
c-635 0 -659 -1 -646 -18 7 -10 105 -129 218 -265 l204 -247 348 0 348 0 0
-101 0 -100 -472 3 c-525 4 -522 4 -666 75 -379 186 -372 695 11 883 154 75
138 73 747 79 l544 6 8 44 c19 112 76 232 155 329 32 39 145 135 199 169 15 9
-139 12 -696 11 -393 -1 -735 -3 -760 -5z"/>
<path d="M4380 5369 c-266 -31 -513 -162 -621 -330 -78 -122 -108 -294 -75
-432 63 -266 325 -460 686 -507 41 -5 357 -10 701 -10 408 0 646 -4 684 -11
105 -19 171 -67 181 -130 8 -54 -24 -94 -104 -132 l-67 -32 -835 -5 -835 -5
-182 -235 c-100 -129 -196 -254 -214 -278 l-31 -43 1079 4 c1048 3 1081 4
1168 24 321 74 552 257 628 498 28 92 30 270 3 360 -79 263 -305 443 -648 517
-99 21 -130 22 -771 27 l-669 6 -19 24 c-26 32 -24 74 5 108 l24 28 700 3 699
3 212 274 c116 151 211 277 211 280 0 9 -1831 3 -1910 -6z"/>
<path d="M6287 5103 l-214 -278 496 -5 496 -5 3 -798 2 -797 330 2 330 3 3
795 2 795 285 3 285 3 180 235 c99 129 195 255 213 279 l34 45 -1115 0 -1115
0 -215 -277z"/>
<path d="M0 400 l0 -400 5000 0 5000 0 0 400 0 400 -5000 0 -5000 0 0 -400z
m2192 123 c23 -20 23 -57 1 -74 -15 -11 -16 -11 -5 1 27 31 11 72 -33 83 -19
4 -19 5 -1 6 11 0 28 -6 38 -16z m-69 -8 c-3 -9 -8 -14 -10 -11 -3 3 -2 9 2
15 9 16 15 13 8 -4z m-1760 -114 c22 -61 43 -108 47 -104 4 4 24 56 45 116 21
59 42 107 47 107 11 0 9 -5 -42 -149 -23 -64 -44 -107 -53 -109 -15 -3 -17 0
-67 143 -15 44 -31 88 -36 99 -5 13 -3 17 6 14 8 -2 32 -55 53 -117z m517 89
c0 -23 4 -30 20 -30 11 0 20 -4 20 -10 0 -5 -10 -10 -21 -10 -20 0 -21 -4 -17
-71 3 -55 8 -74 23 -85 10 -8 16 -16 13 -19 -11 -11 -40 8 -49 32 -12 33 -12
223 1 223 6 0 10 -13 10 -30z m515 16 c24 -11 33 -20 29 -30 -5 -14 -9 -14
-34 -1 -36 18 -61 19 -84 2 -28 -21 -9 -45 49 -62 87 -25 108 -74 54 -127 -29
-29 -33 -30 -90 -25 -68 6 -72 8 -64 29 5 13 12 14 40 5 50 -15 100 1 100 33
0 16 -8 28 -25 36 -113 52 -119 58 -106 110 11 42 70 55 131 30z m105 -16 c0
-25 4 -30 25 -30 16 0 25 -6 25 -15 0 -9 -9 -15 -25 -15 -25 0 -26 -1 -23 -62
3 -54 6 -64 26 -73 12 -5 22 -13 22 -18 0 -17 -31 -18 -55 -3 -24 16 -25 20
-25 131 0 96 3 115 15 115 10 0 15 -10 15 -30z m482 -30 l3 -61 35 30 c19 17
44 30 55 31 16 0 12 -7 -20 -40 l-39 -40 42 -60 c40 -57 41 -60 20 -60 -16 0
-32 14 -53 45 -16 25 -33 45 -37 45 -5 0 -8 -20 -8 -45 0 -38 -3 -45 -20 -45
-19 0 -20 7 -20 130 0 122 1 130 20 130 16 0 19 -8 22 -60z m193 28 c1 -20 -2
-24 -11 -17 -8 7 -14 6 -17 -3 -3 -7 -6 2 -6 20 -1 27 3 33 17 30 11 -2 17
-13 17 -30z m-44 -35 c13 -16 12 -17 -3 -4 -17 13 -22 21 -14 21 2 0 10 -8 17
-17z m-1502 -19 c12 -15 21 -40 21 -55 0 -29 0 -29 -65 -29 -72 0 -83 -12 -44
-51 17 -17 30 -20 65 -16 43 4 59 -5 28 -17 -69 -27 -134 19 -134 95 0 87 82
133 129 73z m191 16 c17 -11 10 -13 -40 -10 -47 2 -75 -28 -75 -80 0 -55 26
-80 82 -80 27 0 42 -4 38 -10 -9 -15 -78 -12 -102 5 -50 35 -50 135 0 170 24
17 74 20 97 5z m265 -13 c20 -16 28 -35 32 -69 5 -42 3 -50 -25 -78 -41 -40
-83 -41 -123 -1 -84 85 27 226 116 148z m85 7 c0 -14 2 -14 22 0 24 17 38 20
38 9 0 -5 -14 -16 -30 -25 -29 -17 -30 -19 -30 -93 0 -43 -4 -75 -10 -75 -6 0
-10 40 -10 100 0 60 4 100 10 100 6 0 10 -7 10 -16z m545 -9 c20 -19 25 -34
25 -75 0 -63 -30 -100 -82 -100 -66 0 -103 56 -87 130 16 69 95 94 144 45z
m184 16 c21 -13 3 -32 -24 -25 -52 13 -88 -41 -65 -97 13 -31 39 -44 69 -34
23 7 39 -14 20 -26 -50 -32 -129 20 -129 85 0 67 32 104 90 105 14 0 31 -3 39
-8z m5380 -94 c8 -26 17 -47 21 -47 4 0 13 21 21 47 8 25 20 48 26 50 13 5
-22 -113 -38 -131 -12 -14 -18 -5 -45 69 -16 44 -20 65 -12 63 7 -3 19 -26 27
-51z m638 36 c3 -8 -6 -11 -23 -10 -35 3 -43 -20 -10 -32 36 -14 50 -45 30
-65 -16 -17 -33 -20 -58 -10 -28 11 -17 24 14 18 22 -5 30 -3 30 8 0 8 -13 24
-30 36 -32 24 -37 41 -18 60 15 15 60 12 65 -5z m333 -18 c0 -37 10 -44 30
-20 7 8 17 15 22 15 6 0 5 -7 -2 -15 -12 -14 -11 -29 5 -67 11 -28 -10 -21
-23 7 -6 14 -16 25 -22 25 -5 0 -10 -11 -10 -25 0 -14 -4 -25 -10 -25 -6 0
-10 30 -10 70 0 40 4 70 10 70 6 0 10 -16 10 -35z m580 32 c0 -4 -34 -104 -45
-136 -3 -8 -8 -11 -11 -8 -8 7 38 147 48 147 4 0 8 -2 8 -3z m100 -11 c0 -7
-7 -19 -15 -26 -13 -11 -12 -14 6 -29 40 -32 0 -82 -51 -66 -30 9 -24 26 6 19
17 -4 29 -2 35 7 10 16 -7 39 -29 39 -12 0 -10 6 8 25 l23 25 -31 0 c-18 0
-32 5 -32 10 0 6 18 10 40 10 27 0 40 -4 40 -14z m107 2 c15 -19 13 -105 -2
-118 -33 -27 -86 8 -70 46 4 11 7 30 6 43 -4 36 44 57 66 29z m123 2 c0 -5
-11 -10 -24 -10 -36 0 -41 -27 -7 -33 16 -3 31 -14 35 -23 15 -40 -20 -73 -64
-59 -31 10 -23 25 10 19 22 -5 31 -2 36 11 8 19 -10 35 -41 35 -18 0 -20 5
-17 35 4 32 7 35 38 35 19 0 34 -4 34 -10z m110 0 c0 -5 -11 -10 -24 -10 -36
0 -41 -27 -7 -33 16 -3 31 -14 35 -23 15 -40 -20 -73 -64 -59 -31 10 -24 25 9
19 17 -4 32 -1 36 5 10 17 -14 41 -39 41 -19 0 -21 4 -18 35 4 32 7 35 38 35
19 0 34 -4 34 -10z m120 5 c0 -6 -60 -127 -66 -134 -2 -2 -7 -2 -10 1 -3 3 6
29 20 57 14 28 26 53 26 56 0 3 -13 5 -30 5 -16 0 -30 5 -30 10 0 6 20 10 45
10 25 0 45 -2 45 -5z m90 -9 c0 -7 -6 -19 -14 -25 -13 -11 -12 -15 5 -32 23
-23 24 -33 3 -53 -16 -17 -33 -20 -58 -10 -27 10 -18 22 17 20 38 -1 44 22 9
40 -20 10 -21 13 -7 24 22 18 18 30 -10 30 -14 0 -25 5 -25 10 0 6 18 10 40
10 27 0 40 -4 40 -14z m104 -2 c23 -22 20 -80 -4 -104 -21 -21 -60 -27 -60
-10 0 6 8 10 18 10 18 0 42 18 42 31 0 4 -9 5 -20 2 -26 -7 -50 13 -50 41 0
43 44 61 74 30z m116 -3 c14 -28 14 -28 -27 -66 l-38 -35 38 0 c20 0 37 -4 37
-10 0 -5 -20 -10 -45 -10 -55 0 -60 19 -15 58 17 15 30 35 30 45 0 16 -5 18
-32 11 -29 -6 -31 -5 -19 10 18 22 58 20 71 -3z m-2082 -18 c12 -12 13 -18 4
-21 -14 -4 -17 -62 -2 -62 6 0 10 -5 10 -11 0 -6 -8 -9 -17 -7 -25 5 -40 118
-16 118 2 0 12 -8 21 -17z m360 0 c12 -12 13 -18 4 -21 -14 -4 -17 -62 -2 -62
6 0 10 -5 10 -11 0 -6 -8 -9 -17 -7 -25 5 -40 118 -16 118 2 0 12 -8 21 -17z
m-528 -22 c15 -29 13 -31 -26 -31 -24 0 -34 -4 -31 -12 2 -7 16 -13 30 -13 15
1 27 -3 27 -7 0 -16 -31 -21 -56 -10 -27 13 -34 58 -12 80 18 18 56 14 68 -7z
m107 4 c2 -6 -9 -11 -24 -10 -23 0 -28 -4 -28 -25 0 -21 5 -25 28 -25 15 1 27
-3 27 -7 0 -16 -31 -21 -56 -10 -29 14 -34 65 -6 81 20 13 54 10 59 -4z m177
-1 c9 -8 16 -24 16 -34 0 -22 -26 -50 -46 -50 -32 0 -54 21 -54 50 0 45 52 66
84 34z m56 5 c0 -8 5 -7 15 1 24 20 29 4 6 -19 -12 -12 -21 -32 -21 -46 0 -14
-4 -25 -10 -25 -5 0 -10 23 -10 50 0 28 5 50 10 50 6 0 10 -5 10 -11z m304 -5
c9 -8 16 -24 16 -34 0 -22 -26 -50 -46 -50 -32 0 -54 21 -54 50 0 45 52 66 84
34z m113 1 c2 -6 -9 -11 -24 -10 -23 0 -28 -4 -28 -25 0 -21 5 -25 28 -25 15
1 27 -3 27 -7 0 -16 -31 -21 -56 -10 -29 14 -34 65 -6 81 20 13 54 10 59 -4z
m250 0 c2 -6 -9 -11 -24 -10 -23 0 -28 -4 -28 -25 0 -21 5 -25 28 -25 15 1 26
-4 24 -10 -5 -15 -46 -18 -63 -5 -20 17 -18 67 4 79 20 13 54 10 59 -4z m107
-1 c9 -8 16 -24 16 -34 0 -22 -26 -50 -46 -50 -32 0 -54 21 -54 50 0 45 52 66
84 34z m56 6 c0 -6 8 -5 20 2 15 9 22 10 31 1 8 -8 16 -9 29 -1 32 20 50 3 50
-47 0 -25 -4 -45 -10 -45 -5 0 -10 18 -10 41 0 33 -3 40 -17 37 -13 -2 -19
-14 -21 -41 -4 -47 -22 -49 -22 -3 0 19 -5 38 -10 41 -18 11 -40 -15 -40 -46
0 -16 -4 -29 -10 -29 -5 0 -10 23 -10 50 0 28 5 50 10 50 6 0 10 -5 10 -10z
m-270 -80 c0 -5 -4 -10 -10 -10 -5 0 -10 5 -10 10 0 6 5 10 10 10 6 0 10 -4
10 -10z"/>
<path d="M2150 500 c0 -5 5 -10 10 -10 6 0 10 5 10 10 0 6 -4 10 -10 10 -5 0
-10 -4 -10 -10z"/>
<path d="M536 418 c-28 -39 -21 -48 39 -48 59 0 67 9 45 51 -15 27 -64 25 -84
-3z"/>
<path d="M986 424 c-50 -50 -21 -144 44 -144 48 0 80 50 66 104 -13 53 -75 75
-110 40z"/>
<path d="M1616 408 c-22 -31 -20 -74 4 -98 26 -26 55 -25 74 2 32 46 8 118
-39 118 -13 0 -31 -10 -39 -22z"/>
<path d="M8992 374 c2 -11 11 -20 22 -22 13 -3 17 1 14 14 -2 11 -11 20 -22
22 -13 3 -17 -1 -14 -14z"/>
<path d="M8983 324 c-7 -20 11 -38 31 -31 23 9 20 34 -5 40 -13 3 -22 0 -26
-9z"/>
<path d="M9534 375 c-4 -9 -2 -21 4 -27 15 -15 44 -1 40 19 -4 23 -36 29 -44
8z"/>
<path d="M7398 343 c6 -2 18 -2 25 0 6 3 1 5 -13 5 -14 0 -19 -2 -12 -5z"/>
<path d="M7674 336 c-10 -26 4 -48 28 -44 17 2 23 10 23 28 0 18 -6 26 -23 28
-13 2 -25 -3 -28 -12z"/>
<path d="M8034 336 c-10 -26 4 -48 28 -44 17 2 23 10 23 28 0 18 -6 26 -23 28
-13 2 -25 -3 -28 -12z"/>
<path d="M8504 336 c-10 -26 4 -48 28 -44 17 2 23 10 23 28 0 18 -6 26 -23 28
-13 2 -25 -3 -28 -12z"/>
</g>
</svg>
